<svg width="36" height="36" viewBox="0 0 36 36" fill="none" xmlns="http://www.w3.org/2000/svg"><path fill-rule="evenodd" clip-rule="evenodd" d="M3 9.84615C3 6.90785 5.26916 4.5 8.22928 4.5H13.4503C15.1424 4.5 16.7619 5.09093 17.9774 6.51162L19.7234 8.19231H27.7707C30.7308 8.19231 33 10.6002 33 13.5385V26.1538C33 29.0922 30.7308 31.5 27.7707 31.5H8.22928C5.26916 31.5 3 29.0922 3 26.1538V9.84615ZM8.22928 7.5C7.01261 7.5 6 8.47677 6 9.84615V26.1538C6 27.5232 7.01261 28.5 8.22928 28.5H27.7707C28.9874 28.5 30 27.5232 30 26.1538V13.5385C30 12.1691 28.9874 11.1923 27.7707 11.1923H19.1188C18.7309 11.1923 18.358 11.042 18.0785 10.773L15.841 8.61915C15.801 8.58063 15.7631 8.53993 15.7276 8.49721C15.1592 7.8133 14.4165 7.5 13.4503 7.5H8.22928Z" fill="black"/><path fill-rule="evenodd" clip-rule="evenodd" d="M18 14.25C18.8284 14.25 19.5 14.9216 19.5 15.75V23.25C19.5 24.0784 18.8284 24.75 18 24.75C17.1716 24.75 16.5 24.0784 16.5 23.25V15.75C16.5 14.9216 17.1716 14.25 18 14.25Z" fill="black"/><path fill-rule="evenodd" clip-rule="evenodd" d="M12.75 19.5C12.75 18.6716 13.4216 18 14.25 18H21.75C22.5784 18 23.25 18.6716 23.25 19.5C23.25 20.3284 22.5784 21 21.75 21H14.25C13.4216 21 12.75 20.3284 12.75 19.5Z" fill="black"/></svg>