<svg width="24" height="24" viewBox="0 0 24 24" fill="none" xmlns="http://www.w3.org/2000/svg">
<path d="M12 2C6.5 2 2 6.5 2 12C2 17.5 6.5 22 12 22C17.5 22 22 17.5 22 12C22 6.5 17.5 2 12 2ZM12 20C7.6 20 4 16.4 4 12C4 7.6 7.6 4 12 4C16.4 4 20 7.6 20 12C20 16.4 16.4 20 12 20Z" fill="black"/>
<path d="M17.5 15.4C16.8 14.7 16 14.2 15.1 13.8C15.8 13 16.3 12 16.3 10.8C16.3 8.4 14.4 6.5 12 6.5C9.59995 6.5 7.69995 8.4 7.69995 10.8C7.69995 12 8.19995 13 8.89995 13.8C7.99995 14.2 7.19995 14.7 6.49995 15.4C6.09995 15.8 6.09995 16.4 6.49995 16.8C6.69995 17 6.99995 17.1 7.19995 17.1C7.49995 17.1 7.69995 17 7.89995 16.8C8.99995 15.7 10.4 15.1 12 15.1C13.5 15.1 15 15.7 16.1 16.8C16.5 17.2 17.1 17.2 17.5 16.8C17.9 16.4 17.9 15.8 17.5 15.4ZM9.69995 10.8C9.69995 9.5 10.7 8.5 12 8.5C13.3 8.5 14.3 9.5 14.3 10.8C14.3 12.1 13.3 13.1 12 13.1C10.7 13.1 9.69995 12.1 9.69995 10.8Z" fill="black"/>
</svg>
