<svg width="36" height="36" viewBox="0 0 36 36" fill="none" xmlns="http://www.w3.org/2000/svg"><path d="M31.5 8.40039H14.25C13.35 8.40039 12.75 7.80039 12.75 6.90039C12.75 6.00039 13.35 5.40039 14.25 5.40039H31.5C32.4 5.40039 33 6.00039 33 6.90039C33 7.80039 32.4 8.40039 31.5 8.40039Z" fill="black"/><path d="M31.5 19.5H14.25C13.35 19.5 12.75 18.9 12.75 18C12.75 17.1 13.35 16.5 14.25 16.5H31.5C32.4 16.5 33 17.1 33 18C33 18.9 32.4 19.5 31.5 19.5Z" fill="black"/><path d="M31.5 30.5996H14.25C13.35 30.5996 12.75 29.9996 12.75 29.0996C12.75 28.1996 13.35 27.5996 14.25 27.5996H31.5C32.4 27.5996 33 28.1996 33 29.0996C33 29.9996 32.4 30.5996 31.5 30.5996Z" fill="black"/><path d="M6.9 10.95C4.8 10.95 3 9.15 3 6.9C3 4.8 4.8 3 6.9 3C9.15 3 10.8 4.8 10.8 6.9C10.95 9.15 9.15 10.95 6.9 10.95ZM6.9 6C6.45 6 6 6.45 6 6.9C6 7.5 6.45 7.95 6.9 7.95C7.5 7.95 7.95 7.5 7.95 6.9C7.95 6.45 7.5 6 6.9 6Z" fill="black"/><path d="M6.9 21.8996C4.8 21.8996 3 20.2496 3 17.9996C3 15.7496 4.8 14.0996 6.9 14.0996C9.15 14.0996 10.8 15.8996 10.8 17.9996C10.95 20.2496 9.15 21.8996 6.9 21.8996ZM6.9 17.0996C6.45 17.0996 6 17.3996 6 17.9996C6 18.5996 6.45 18.8996 6.9 18.8996C7.5 18.8996 7.8 18.4496 7.8 17.9996C7.95 17.3996 7.5 17.0996 6.9 17.0996Z" fill="black"/><path d="M6.9 33.0002C4.8 33.0002 3 31.2002 3 29.1002C3 26.8502 4.8 25.2002 6.9 25.2002C9.15 25.2002 10.8 27.0002 10.8 29.1002C10.95 31.2002 9.15 33.0002 6.9 33.0002ZM6.9 28.0502C6.45 28.0502 6 28.5002 6 29.1002C6 29.5502 6.45 30.0002 6.9 30.0002C7.5 30.0002 7.8 29.5502 7.8 29.1002C7.95 28.5002 7.5 28.0502 6.9 28.0502Z" fill="black"/></svg>