<svg width="188" height="35" viewBox="0 0 188 35" fill="none" xmlns="http://www.w3.org/2000/svg">
<g clip-path="url(#clip0_5072_15039)">
<path d="M19.4303 29.308L7.70312 25.6653C7.4168 25.5763 7.22266 25.3152 7.22266 25.0192V14.5902L20.3246 16.9194V28.6619C20.3246 29.1204 19.8735 29.4454 19.4303 29.308Z" fill="url(#paint0_linear_5072_15039)"/>
<path d="M11.0097 19.4535L2.55744 16.8593C1.46512 16.5246 1.38276 15.0312 2.42997 14.5804L7.08359 13.8569L20.3365 16.9077L14.1493 19.142C13.0041 19.5889 12.0549 19.7746 11.0077 19.4535H11.0097Z" fill="#20CC6F"/>
<path d="M10.9525 19.4903L0.868677 16.339C0.113665 16.1068 -0.229523 15.244 0.166613 14.5669L8.4541 3.12039C8.58941 2.88825 8.85023 2.7567 9.12086 2.78572L20.9677 3.99866C21.4383 4.04702 21.7207 4.53839 21.5187 4.96012L12.437 18.8442C12.1762 19.3955 11.5408 19.6702 10.9525 19.4903Z" fill="url(#paint1_linear_5072_15039)"/>
<path d="M45.1928 11.1351V27.12H40.5549V11.1351H35.917V7.34924H49.8308V11.1332H45.1928V11.1351Z" fill="#081E22"/>
<path d="M119.857 11.1351V27.12H115.219V11.1351H110.581V7.34924H124.495V11.1332H119.857V11.1351Z" fill="#081E22"/>
<path d="M55.9218 27.4586C51.3702 27.4586 48.105 24.3808 48.105 19.7766C48.105 15.1725 51.4839 11.642 55.9493 11.642C60.4146 11.642 63.4798 14.5786 63.4798 18.6178C63.4798 19.2388 63.3935 19.9739 63.2797 20.68H52.8017C53.1175 22.572 54.3471 23.843 56.2375 23.843C58.128 23.843 59.0438 23.0247 60.0459 21.6686L63.0228 23.6747C61.1618 26.2166 59.2713 27.4586 55.9218 27.4586V27.4586ZM58.785 17.6873C58.6987 15.9927 57.5534 15.1454 56.0944 15.1454C54.2902 15.1454 53.3744 16.19 52.9743 17.6873H58.7869H58.785Z" fill="#081E22"/>
<path d="M74.6363 27.12L74.2068 25.9342C73.291 27.093 71.6869 27.4586 70.169 27.4586C67.3058 27.4586 64.6152 25.6517 64.6152 22.572C64.6152 18.9003 68.1373 17.7415 71.2574 17.7415C72.1163 17.7415 73.0322 17.8537 73.8911 18.053V17.9408C73.8911 16.19 73.2047 15.0873 71.0848 15.0873C69.3669 15.0873 67.9059 15.7083 66.5332 16.3873L65.331 13.2515C67.4215 12.2339 69.7689 11.642 72.1163 11.642C76.3248 11.642 78.529 14.0988 78.529 18.053V27.1181H74.6343L74.6363 27.12ZM73.8911 20.6239C73.2322 20.4827 72.6596 20.3705 72.0595 20.3705C70.6573 20.3705 69.1394 20.9644 69.1394 22.5739C69.1394 23.7037 70.1415 24.4098 71.2299 24.4098C72.3183 24.4098 73.1204 24.0151 73.8931 23.309V20.6259L73.8911 20.6239Z" fill="#081E22"/>
<path d="M99.4814 27.1201V19.4381C99.4814 18.4496 99.4814 17.2908 99.1382 16.5286C98.795 15.7664 98.0792 15.4839 97.3066 15.4839C96.3339 15.4839 95.3592 15.9927 94.7297 16.9522C94.816 17.6874 94.8435 18.4766 94.8435 19.2679V27.1201H90.2056V19.4381C90.2056 18.4496 90.2056 17.2908 89.8624 16.5286C89.5192 15.7664 88.8034 15.4839 88.0307 15.4839C87.2012 15.4839 86.2265 15.8515 85.5676 16.5576V27.1201H80.9297V11.9825H84.8518L85.195 13.6771C86.454 12.1527 88.0876 11.6439 89.5192 11.6439C90.9508 11.6439 92.4686 12.4351 93.4707 13.65C93.5845 13.7912 93.6708 13.9325 93.7865 14.1027C95.2475 12.0134 97.2791 11.6459 98.797 11.6459C100.315 11.6459 101.746 12.4371 102.749 13.6519C104.008 15.2344 104.123 17.1534 104.123 19.2717V27.1239H99.4853L99.4814 27.1201Z" fill="#081E22"/>
<path d="M138.96 19.5503C138.96 24.0132 135.61 27.4586 130.857 27.4586C126.103 27.4586 122.753 24.0132 122.753 19.5503C122.753 15.0873 126.103 11.642 130.857 11.642C135.61 11.642 138.96 15.0873 138.96 19.5503ZM130.857 15.4839C128.795 15.4839 127.45 17.2347 127.45 19.5503C127.45 21.8659 128.795 23.6166 130.857 23.6166C132.918 23.6166 134.263 21.8659 134.263 19.5503C134.263 17.2347 132.918 15.4839 130.857 15.4839Z" fill="#081E22"/>
<path d="M156.198 27.12H152.303L151.844 25.3132C150.785 26.9788 148.665 27.4605 147.177 27.4605C143.225 27.4605 140.219 23.8739 140.219 19.4961C140.219 15.1182 143.225 11.6438 147.204 11.6438C148.549 11.6438 150.41 12.0675 151.556 13.3946V5.93701H156.194V27.12H156.198ZM148.324 15.4839C146.004 15.4839 144.917 17.6583 144.917 19.6083C144.917 21.5583 146.176 23.6185 148.267 23.6185C149.442 23.6185 150.614 23.28 151.56 21.9239V16.9251C150.528 15.7953 149.499 15.4839 148.324 15.4839V15.4839Z" fill="#081E22"/>
<path d="M168.181 27.12L167.752 25.9342C166.836 27.093 165.232 27.4586 163.714 27.4586C160.851 27.4586 158.16 25.6518 158.16 22.572C158.16 18.9003 161.682 17.7415 164.802 17.7415C165.661 17.7415 166.577 17.8537 167.436 18.053V17.9408C167.436 16.19 166.75 15.0873 164.63 15.0873C162.912 15.0873 161.451 15.7083 160.078 16.3873L158.876 13.2515C160.966 12.2339 163.314 11.642 165.661 11.642C169.87 11.642 172.074 14.0988 172.074 18.053V27.1181H168.179L168.181 27.12ZM167.438 20.6239C166.779 20.4827 166.206 20.3705 165.606 20.3705C164.204 20.3705 162.686 20.9644 162.686 22.5739C162.686 23.7037 163.688 24.4098 164.777 24.4098C165.865 24.4098 166.667 24.0151 167.44 23.309V20.6259L167.438 20.6239Z" fill="#081E22"/>
<path d="M177.35 11.9824L180.099 20.3144H180.156L182.99 11.9824H188L179.354 34.0978L175.202 32.5154L177.663 26.0754L172.31 11.9824H177.35Z" fill="#081E22"/>
</g>
<defs>
<linearGradient id="paint0_linear_5072_15039" x1="13.7726" y1="24.7445" x2="13.7726" y2="21.3204" gradientUnits="userSpaceOnUse">
<stop stop-color="#0057FF"/>
<stop offset="1" stop-color="#000DFF"/>
</linearGradient>
<linearGradient id="paint1_linear_5072_15039" x1="30.2632" y1="7.268" x2="-35.1358" y2="20.3216" gradientUnits="userSpaceOnUse">
<stop stop-color="#0057FF"/>
<stop offset="1" stop-color="#002FFF"/>
</linearGradient>
<clipPath id="clip0_5072_15039">
<rect width="188" height="31.314" fill="white" transform="translate(0 2.78186)"/>
</clipPath>
</defs>
</svg>
